<?xml version="1.0" encoding="UTF-8"?>
<svg width="540px" height="540px" viewBox="0 0 540 540" version="1.1" xmlns="http://www.w3.org/2000/svg" xmlns:xlink="http://www.w3.org/1999/xlink">
    <!-- Generator: Sketch 50.2 (55047) - http://www.bohemiancoding.com/sketch -->
    <title>Group 28</title>
    <desc>Created with Sketch.</desc>
    <defs></defs>
    <g id="Page-1" stroke="none" stroke-width="1" fill="none" fill-rule="evenodd">
        <g id="VCU-大词活动页面06" transform="translate(-560.000000, -767.000000)">
            <g id="Group-24" transform="translate(560.000000, 697.000000)">
                <g id="Group-Copy">
                    <g id="Group-28" transform="translate(0.000000, 70.000000)">
                        <rect id="Rectangle-47" fill="#A1E769" x="0" y="0" width="540" height="540" rx="20"></rect>
                        <rect id="Mask" fill="#509818" x="14" y="14" width="513" height="513" rx="10"></rect>
                        <g id="Group" transform="translate(38.000000, 4.000000)">
                            <ellipse id="Oval-16-Copy" fill="#589229" cx="3.14796905" cy="3" rx="3.14796905" ry="3"></ellipse>
                            <ellipse id="Oval-16-Copy-2" fill="#FFF67D" cx="18.4381044" cy="3" rx="3.14796905" ry="3"></ellipse>
                            <ellipse id="Oval-16-Copy-3" fill="#589229" cx="33.7282398" cy="3" rx="3.14796905" ry="3"></ellipse>
                            <ellipse id="Oval-16-Copy-4" fill="#FFF67D" cx="49.0183752" cy="3" rx="3.14796905" ry="3"></ellipse>
                            <ellipse id="Oval-16-Copy-5" fill="#589229" cx="64.3085106" cy="3" rx="3.14796905" ry="3"></ellipse>
                            <ellipse id="Oval-16-Copy-6" fill="#FFF67D" cx="79.598646" cy="3" rx="3.14796905" ry="3"></ellipse>
                            <ellipse id="Oval-16-Copy-7" fill="#589229" cx="94.8887814" cy="3" rx="3.14796905" ry="3"></ellipse>
                            <ellipse id="Oval-16-Copy-8" fill="#FFF67D" cx="110.178917" cy="3" rx="3.14796905" ry="3"></ellipse>
                            <ellipse id="Oval-16-Copy-9" fill="#589229" cx="125.469052" cy="3" rx="3.14796905" ry="3"></ellipse>
                            <ellipse id="Oval-16-Copy-10" fill="#FFF67D" cx="140.759188" cy="3" rx="3.14796905" ry="3"></ellipse>
                            <ellipse id="Oval-16-Copy-11" fill="#589229" cx="156.049323" cy="3" rx="3.14796905" ry="3"></ellipse>
                            <ellipse id="Oval-16-Copy-12" fill="#FFF67D" cx="171.339458" cy="3" rx="3.14796905" ry="3"></ellipse>
                            <ellipse id="Oval-16-Copy-13" fill="#589229" cx="186.629594" cy="3" rx="3.14796905" ry="3"></ellipse>
                            <ellipse id="Oval-16-Copy-14" fill="#FFF67D" cx="201.919729" cy="3" rx="3.14796905" ry="3"></ellipse>
                            <ellipse id="Oval-16-Copy-15" fill="#589229" cx="217.209865" cy="3" rx="3.14796905" ry="3"></ellipse>
                            <ellipse id="Oval-16-Copy-16" fill="#FFF67D" cx="232.5" cy="3" rx="3.14796905" ry="3"></ellipse>
                            <ellipse id="Oval-16-Copy-17" fill="#589229" cx="247.790135" cy="3" rx="3.14796905" ry="3"></ellipse>
                            <ellipse id="Oval-16-Copy-18" fill="#FFF67D" cx="263.080271" cy="3" rx="3.14796905" ry="3"></ellipse>
                            <ellipse id="Oval-16-Copy-19" fill="#589229" cx="278.370406" cy="3" rx="3.14796905" ry="3"></ellipse>
                            <ellipse id="Oval-16-Copy-20" fill="#FFF67D" cx="293.660542" cy="3" rx="3.14796905" ry="3"></ellipse>
                            <ellipse id="Oval-16-Copy-21" fill="#589229" cx="308.950677" cy="3" rx="3.14796905" ry="3"></ellipse>
                            <ellipse id="Oval-16-Copy-22" fill="#FFF67D" cx="324.240812" cy="3" rx="3.14796905" ry="3"></ellipse>
                            <ellipse id="Oval-16-Copy-23" fill="#589229" cx="339.530948" cy="3" rx="3.14796905" ry="3"></ellipse>
                            <ellipse id="Oval-16-Copy-24" fill="#FFF67D" cx="354.821083" cy="3" rx="3.14796905" ry="3"></ellipse>
                            <ellipse id="Oval-16-Copy-25" fill="#589229" cx="370.111219" cy="3" rx="3.14796905" ry="3"></ellipse>
                            <ellipse id="Oval-16-Copy-26" fill="#FFF67D" cx="385.401354" cy="3" rx="3.14796905" ry="3"></ellipse>
                            <ellipse id="Oval-16-Copy-27" fill="#589229" cx="400.691489" cy="3" rx="3.14796905" ry="3"></ellipse>
                            <ellipse id="Oval-16-Copy-28" fill="#FFF67D" cx="415.981625" cy="3" rx="3.14796905" ry="3"></ellipse>
                            <ellipse id="Oval-16-Copy-29" fill="#589229" cx="431.27176" cy="3" rx="3.14796905" ry="3"></ellipse>
                            <ellipse id="Oval-16-Copy-30" fill="#FFF67D" cx="446.561896" cy="3" rx="3.14796905" ry="3"></ellipse>
                            <ellipse id="Oval-16-Copy-31" fill="#589229" cx="461.852031" cy="3" rx="3.14796905" ry="3"></ellipse>
                        </g>
                        <g id="Group-Copy-3" transform="translate(6.500000, 270.000000) rotate(-270.000000) translate(-6.500000, -270.000000) translate(-226.000000, 267.000000)">
                            <ellipse id="Oval-16-Copy" fill="#589229" cx="3.14796905" cy="3" rx="3.14796905" ry="3"></ellipse>
                            <ellipse id="Oval-16-Copy-2" fill="#FFF67D" cx="18.4381044" cy="3" rx="3.14796905" ry="3"></ellipse>
                            <ellipse id="Oval-16-Copy-3" fill="#589229" cx="33.7282398" cy="3" rx="3.14796905" ry="3"></ellipse>
                            <ellipse id="Oval-16-Copy-4" fill="#FFF67D" cx="49.0183752" cy="3" rx="3.14796905" ry="3"></ellipse>
                            <ellipse id="Oval-16-Copy-5" fill="#589229" cx="64.3085106" cy="3" rx="3.14796905" ry="3"></ellipse>
                            <ellipse id="Oval-16-Copy-6" fill="#FFF67D" cx="79.598646" cy="3" rx="3.14796905" ry="3"></ellipse>
                            <ellipse id="Oval-16-Copy-7" fill="#589229" cx="94.8887814" cy="3" rx="3.14796905" ry="3"></ellipse>
                            <ellipse id="Oval-16-Copy-8" fill="#FFF67D" cx="110.178917" cy="3" rx="3.14796905" ry="3"></ellipse>
                            <ellipse id="Oval-16-Copy-9" fill="#589229" cx="125.469052" cy="3" rx="3.14796905" ry="3"></ellipse>
                            <ellipse id="Oval-16-Copy-10" fill="#FFF67D" cx="140.759188" cy="3" rx="3.14796905" ry="3"></ellipse>
                            <ellipse id="Oval-16-Copy-11" fill="#589229" cx="156.049323" cy="3" rx="3.14796905" ry="3"></ellipse>
                            <ellipse id="Oval-16-Copy-12" fill="#FFF67D" cx="171.339458" cy="3" rx="3.14796905" ry="3"></ellipse>
                            <ellipse id="Oval-16-Copy-13" fill="#589229" cx="186.629594" cy="3" rx="3.14796905" ry="3"></ellipse>
                            <ellipse id="Oval-16-Copy-14" fill="#FFF67D" cx="201.919729" cy="3" rx="3.14796905" ry="3"></ellipse>
                            <ellipse id="Oval-16-Copy-15" fill="#589229" cx="217.209865" cy="3" rx="3.14796905" ry="3"></ellipse>
                            <ellipse id="Oval-16-Copy-16" fill="#FFF67D" cx="232.5" cy="3" rx="3.14796905" ry="3"></ellipse>
                            <ellipse id="Oval-16-Copy-17" fill="#589229" cx="247.790135" cy="3" rx="3.14796905" ry="3"></ellipse>
                            <ellipse id="Oval-16-Copy-18" fill="#FFF67D" cx="263.080271" cy="3" rx="3.14796905" ry="3"></ellipse>
                            <ellipse id="Oval-16-Copy-19" fill="#589229" cx="278.370406" cy="3" rx="3.14796905" ry="3"></ellipse>
                            <ellipse id="Oval-16-Copy-20" fill="#FFF67D" cx="293.660542" cy="3" rx="3.14796905" ry="3"></ellipse>
                            <ellipse id="Oval-16-Copy-21" fill="#589229" cx="308.950677" cy="3" rx="3.14796905" ry="3"></ellipse>
                            <ellipse id="Oval-16-Copy-22" fill="#FFF67D" cx="324.240812" cy="3" rx="3.14796905" ry="3"></ellipse>
                            <ellipse id="Oval-16-Copy-23" fill="#589229" cx="339.530948" cy="3" rx="3.14796905" ry="3"></ellipse>
                            <ellipse id="Oval-16-Copy-24" fill="#FFF67D" cx="354.821083" cy="3" rx="3.14796905" ry="3"></ellipse>
                            <ellipse id="Oval-16-Copy-25" fill="#589229" cx="370.111219" cy="3" rx="3.14796905" ry="3"></ellipse>
                            <ellipse id="Oval-16-Copy-26" fill="#FFF67D" cx="385.401354" cy="3" rx="3.14796905" ry="3"></ellipse>
                            <ellipse id="Oval-16-Copy-27" fill="#589229" cx="400.691489" cy="3" rx="3.14796905" ry="3"></ellipse>
                            <ellipse id="Oval-16-Copy-28" fill="#FFF67D" cx="415.981625" cy="3" rx="3.14796905" ry="3"></ellipse>
                            <ellipse id="Oval-16-Copy-29" fill="#589229" cx="431.27176" cy="3" rx="3.14796905" ry="3"></ellipse>
                            <ellipse id="Oval-16-Copy-30" fill="#FFF67D" cx="446.561896" cy="3" rx="3.14796905" ry="3"></ellipse>
                            <ellipse id="Oval-16-Copy-31" fill="#589229" cx="461.852031" cy="3" rx="3.14796905" ry="3"></ellipse>
                        </g>
                        <g id="Group-Copy-4" transform="translate(533.500000, 270.000000) rotate(-270.000000) translate(-533.500000, -270.000000) translate(301.000000, 267.000000)">
                            <ellipse id="Oval-16-Copy" fill="#589229" cx="3.14796905" cy="3" rx="3.14796905" ry="3"></ellipse>
                            <ellipse id="Oval-16-Copy-2" fill="#FFF67D" cx="18.4381044" cy="3" rx="3.14796905" ry="3"></ellipse>
                            <ellipse id="Oval-16-Copy-3" fill="#589229" cx="33.7282398" cy="3" rx="3.14796905" ry="3"></ellipse>
                            <ellipse id="Oval-16-Copy-4" fill="#FFF67D" cx="49.0183752" cy="3" rx="3.14796905" ry="3"></ellipse>
                            <ellipse id="Oval-16-Copy-5" fill="#589229" cx="64.3085106" cy="3" rx="3.14796905" ry="3"></ellipse>
                            <ellipse id="Oval-16-Copy-6" fill="#FFF67D" cx="79.598646" cy="3" rx="3.14796905" ry="3"></ellipse>
                            <ellipse id="Oval-16-Copy-7" fill="#589229" cx="94.8887814" cy="3" rx="3.14796905" ry="3"></ellipse>
                            <ellipse id="Oval-16-Copy-8" fill="#FFF67D" cx="110.178917" cy="3" rx="3.14796905" ry="3"></ellipse>
                            <ellipse id="Oval-16-Copy-9" fill="#589229" cx="125.469052" cy="3" rx="3.14796905" ry="3"></ellipse>
                            <ellipse id="Oval-16-Copy-10" fill="#FFF67D" cx="140.759188" cy="3" rx="3.14796905" ry="3"></ellipse>
                            <ellipse id="Oval-16-Copy-11" fill="#589229" cx="156.049323" cy="3" rx="3.14796905" ry="3"></ellipse>
                            <ellipse id="Oval-16-Copy-12" fill="#FFF67D" cx="171.339458" cy="3" rx="3.14796905" ry="3"></ellipse>
                            <ellipse id="Oval-16-Copy-13" fill="#589229" cx="186.629594" cy="3" rx="3.14796905" ry="3"></ellipse>
                            <ellipse id="Oval-16-Copy-14" fill="#FFF67D" cx="201.919729" cy="3" rx="3.14796905" ry="3"></ellipse>
                            <ellipse id="Oval-16-Copy-15" fill="#589229" cx="217.209865" cy="3" rx="3.14796905" ry="3"></ellipse>
                            <ellipse id="Oval-16-Copy-16" fill="#FFF67D" cx="232.5" cy="3" rx="3.14796905" ry="3"></ellipse>
                            <ellipse id="Oval-16-Copy-17" fill="#589229" cx="247.790135" cy="3" rx="3.14796905" ry="3"></ellipse>
                            <ellipse id="Oval-16-Copy-18" fill="#FFF67D" cx="263.080271" cy="3" rx="3.14796905" ry="3"></ellipse>
                            <ellipse id="Oval-16-Copy-19" fill="#589229" cx="278.370406" cy="3" rx="3.14796905" ry="3"></ellipse>
                            <ellipse id="Oval-16-Copy-20" fill="#FFF67D" cx="293.660542" cy="3" rx="3.14796905" ry="3"></ellipse>
                            <ellipse id="Oval-16-Copy-21" fill="#589229" cx="308.950677" cy="3" rx="3.14796905" ry="3"></ellipse>
                            <ellipse id="Oval-16-Copy-22" fill="#FFF67D" cx="324.240812" cy="3" rx="3.14796905" ry="3"></ellipse>
                            <ellipse id="Oval-16-Copy-23" fill="#589229" cx="339.530948" cy="3" rx="3.14796905" ry="3"></ellipse>
                            <ellipse id="Oval-16-Copy-24" fill="#FFF67D" cx="354.821083" cy="3" rx="3.14796905" ry="3"></ellipse>
                            <ellipse id="Oval-16-Copy-25" fill="#589229" cx="370.111219" cy="3" rx="3.14796905" ry="3"></ellipse>
                            <ellipse id="Oval-16-Copy-26" fill="#FFF67D" cx="385.401354" cy="3" rx="3.14796905" ry="3"></ellipse>
                            <ellipse id="Oval-16-Copy-27" fill="#589229" cx="400.691489" cy="3" rx="3.14796905" ry="3"></ellipse>
                            <ellipse id="Oval-16-Copy-28" fill="#FFF67D" cx="415.981625" cy="3" rx="3.14796905" ry="3"></ellipse>
                            <ellipse id="Oval-16-Copy-29" fill="#589229" cx="431.27176" cy="3" rx="3.14796905" ry="3"></ellipse>
                            <ellipse id="Oval-16-Copy-30" fill="#FFF67D" cx="446.561896" cy="3" rx="3.14796905" ry="3"></ellipse>
                            <ellipse id="Oval-16-Copy-31" fill="#589229" cx="461.852031" cy="3" rx="3.14796905" ry="3"></ellipse>
                        </g>
                        <g id="Group-Copy-2" transform="translate(38.000000, 530.000000)">
                            <ellipse id="Oval-16-Copy" fill="#589229" cx="3.14796905" cy="3" rx="3.14796905" ry="3"></ellipse>
                            <ellipse id="Oval-16-Copy-2" fill="#FFF67D" cx="18.4381044" cy="3" rx="3.14796905" ry="3"></ellipse>
                            <ellipse id="Oval-16-Copy-3" fill="#589229" cx="33.7282398" cy="3" rx="3.14796905" ry="3"></ellipse>
                            <ellipse id="Oval-16-Copy-4" fill="#FFF67D" cx="49.0183752" cy="3" rx="3.14796905" ry="3"></ellipse>
                            <ellipse id="Oval-16-Copy-5" fill="#589229" cx="64.3085106" cy="3" rx="3.14796905" ry="3"></ellipse>
                            <ellipse id="Oval-16-Copy-6" fill="#FFF67D" cx="79.598646" cy="3" rx="3.14796905" ry="3"></ellipse>
                            <ellipse id="Oval-16-Copy-7" fill="#589229" cx="94.8887814" cy="3" rx="3.14796905" ry="3"></ellipse>
                            <ellipse id="Oval-16-Copy-8" fill="#FFF67D" cx="110.178917" cy="3" rx="3.14796905" ry="3"></ellipse>
                            <ellipse id="Oval-16-Copy-9" fill="#589229" cx="125.469052" cy="3" rx="3.14796905" ry="3"></ellipse>
                            <ellipse id="Oval-16-Copy-10" fill="#FFF67D" cx="140.759188" cy="3" rx="3.14796905" ry="3"></ellipse>
                            <ellipse id="Oval-16-Copy-11" fill="#589229" cx="156.049323" cy="3" rx="3.14796905" ry="3"></ellipse>
                            <ellipse id="Oval-16-Copy-12" fill="#FFF67D" cx="171.339458" cy="3" rx="3.14796905" ry="3"></ellipse>
                            <ellipse id="Oval-16-Copy-13" fill="#589229" cx="186.629594" cy="3" rx="3.14796905" ry="3"></ellipse>
                            <ellipse id="Oval-16-Copy-14" fill="#FFF67D" cx="201.919729" cy="3" rx="3.14796905" ry="3"></ellipse>
                            <ellipse id="Oval-16-Copy-15" fill="#589229" cx="217.209865" cy="3" rx="3.14796905" ry="3"></ellipse>
                            <ellipse id="Oval-16-Copy-16" fill="#FFF67D" cx="232.5" cy="3" rx="3.14796905" ry="3"></ellipse>
                            <ellipse id="Oval-16-Copy-17" fill="#589229" cx="247.790135" cy="3" rx="3.14796905" ry="3"></ellipse>
                            <ellipse id="Oval-16-Copy-18" fill="#FFF67D" cx="263.080271" cy="3" rx="3.14796905" ry="3"></ellipse>
                            <ellipse id="Oval-16-Copy-19" fill="#589229" cx="278.370406" cy="3" rx="3.14796905" ry="3"></ellipse>
                            <ellipse id="Oval-16-Copy-20" fill="#FFF67D" cx="293.660542" cy="3" rx="3.14796905" ry="3"></ellipse>
                            <ellipse id="Oval-16-Copy-21" fill="#589229" cx="308.950677" cy="3" rx="3.14796905" ry="3"></ellipse>
                            <ellipse id="Oval-16-Copy-22" fill="#FFF67D" cx="324.240812" cy="3" rx="3.14796905" ry="3"></ellipse>
                            <ellipse id="Oval-16-Copy-23" fill="#589229" cx="339.530948" cy="3" rx="3.14796905" ry="3"></ellipse>
                            <ellipse id="Oval-16-Copy-24" fill="#FFF67D" cx="354.821083" cy="3" rx="3.14796905" ry="3"></ellipse>
                            <ellipse id="Oval-16-Copy-25" fill="#589229" cx="370.111219" cy="3" rx="3.14796905" ry="3"></ellipse>
                            <ellipse id="Oval-16-Copy-26" fill="#FFF67D" cx="385.401354" cy="3" rx="3.14796905" ry="3"></ellipse>
                            <ellipse id="Oval-16-Copy-27" fill="#589229" cx="400.691489" cy="3" rx="3.14796905" ry="3"></ellipse>
                            <ellipse id="Oval-16-Copy-28" fill="#FFF67D" cx="415.981625" cy="3" rx="3.14796905" ry="3"></ellipse>
                            <ellipse id="Oval-16-Copy-29" fill="#589229" cx="431.27176" cy="3" rx="3.14796905" ry="3"></ellipse>
                            <ellipse id="Oval-16-Copy-30" fill="#FFF67D" cx="446.561896" cy="3" rx="3.14796905" ry="3"></ellipse>
                            <ellipse id="Oval-16-Copy-31" fill="#589229" cx="461.852031" cy="3" rx="3.14796905" ry="3"></ellipse>
                        </g>
                        <path d="M28,534 L19.2,534 C11.9098413,534 6,527.82153 6,520.2 L6,511" id="Rectangle-49" stroke="#FFF67D" stroke-width="3" stroke-linecap="round"></path>
                        <path d="M28,28 L19.2,28 C11.9098413,28 6,22.0901587 6,14.8 L6,6" id="Rectangle-49-Copy-2" stroke="#FFF67D" stroke-width="3" stroke-linecap="round" transform="translate(17.000000, 17.000000) scale(1, -1) translate(-17.000000, -17.000000) "></path>
                        <path d="M532,534 L523.2,534 C515.909841,534 510,527.82153 510,520.2 L510,511" id="Rectangle-49-Copy" stroke="#FFF67D" stroke-width="3" stroke-linecap="round" transform="translate(521.000000, 522.500000) scale(-1, 1) translate(-521.000000, -522.500000) "></path>
                        <path d="M532,28 L523.2,28 C515.909841,28 510,22.0901587 510,14.8 L510,6" id="Rectangle-49-Copy-3" stroke="#FFF67D" stroke-width="3" stroke-linecap="round" transform="translate(521.000000, 17.000000) scale(-1, -1) translate(-521.000000, -17.000000) "></path>
                    </g>
                </g>
            </g>
        </g>
    </g>
</svg>