<?xml version="1.0" encoding="UTF-8"?>
<svg width="43px" height="32px" viewBox="0 0 43 32" version="1.1" xmlns="http://www.w3.org/2000/svg" xmlns:xlink="http://www.w3.org/1999/xlink">
    <!-- Generator: Sketch 50.2 (55047) - http://www.bohemiancoding.com/sketch -->
    <title>Merge</title>
    <desc>Created with Sketch.</desc>
    <defs></defs>
    <g id="Page-1" stroke="none" stroke-width="1" fill="none" fill-rule="evenodd">
        <g id="Merge" fill="#8B8B8B">
            <path d="M29,10 L29,21.2 C29,22.1941125 28.1941125,23 27.2,23 L13,23 L13,11.8 C13,10.8058875 13.8058875,10 14.8,10 L29,10 Z" id="Combined-Shape"></path>
            <path d="M2.54716981,1.0729046e-15 L27.4528302,1.0729046e-15 C28.8595932,8.58323683e-16 30,1.16819819 30,2.6092437 L30,20.3907563 C30,21.8318018 28.8595932,23 27.4528302,23 L2.54716981,23 C1.14040677,23 8.3790417e-16,21.8318018 6.28428127e-16,20.3907563 L0,2.6092437 C-2.09476042e-16,1.16819819 1.14040677,2.14580921e-16 2.54716981,1.0729046e-15 Z M2.54716981,1.7394958 C2.0782488,1.7394958 1.69811321,2.1288952 1.69811321,2.6092437 L1.69811321,20.3907563 C1.69811321,20.8711048 2.0782488,21.2605042 2.54716981,21.2605042 L27.4528302,21.2605042 C27.9217512,21.2605042 28.3018868,20.8711048 28.3018868,20.3907563 L28.3018868,2.6092437 C28.3018868,2.1288952 27.9217512,1.7394958 27.4528302,1.7394958 L2.54716981,1.7394958 Z" id="Rectangle-52" fill-rule="nonzero"></path>
            <path d="M15.5471698,9 L40.4528302,9 C41.8595932,9 43,10.1681982 43,11.6092437 L43,29.3907563 C43,30.8318018 41.8595932,32 40.4528302,32 L15.5471698,32 C14.1404068,32 13,30.8318018 13,29.3907563 L13,11.6092437 C13,10.1681982 14.1404068,9 15.5471698,9 Z M15.5471698,10.7394958 C15.0782488,10.7394958 14.6981132,11.1288952 14.6981132,11.6092437 L14.6981132,29.3907563 C14.6981132,29.8711048 15.0782488,30.2605042 15.5471698,30.2605042 L40.4528302,30.2605042 C40.9217512,30.2605042 41.3018868,29.8711048 41.3018868,29.3907563 L41.3018868,11.6092437 C41.3018868,11.1288952 40.9217512,10.7394958 40.4528302,10.7394958 L15.5471698,10.7394958 Z" id="Rectangle-52-Copy" fill-rule="nonzero"></path>
        </g>
    </g>
</svg>