<?xml version="1.0" encoding="UTF-8"?>
<svg width="43px" height="39px" viewBox="0 0 43 39" version="1.1" xmlns="http://www.w3.org/2000/svg" xmlns:xlink="http://www.w3.org/1999/xlink">
    <!-- Generator: Sketch 50.2 (55047) - http://www.bohemiancoding.com/sketch -->
    <title>Trim</title>
    <desc>Created with Sketch.</desc>
    <defs></defs>
    <g id="Page-1" stroke="none" stroke-width="1" fill="none" fill-rule="evenodd">
        <path d="M40.1806711,0 L40.1059868,0 L34.3202237,0 C34.3202237,0 32.4463289,6.79804412 22.5450132,16.6443971 C22.5450132,16.6443971 29.7763684,5.655 29.7763684,3.38497059 C28.6804342,3.41995588 19.8495921,3.44117647 19.8495921,3.44117647 L10.4031711,3.44117647 C8.99378947,3.44117647 8.48684211,2.23963235 8.48684211,0.882661765 L8.48684211,0 L2.74181579,0 C1.333,0 0,0.754764706 0,2.11116176 L0,36.5097353 C0,37.8655588 1.333,39 2.74181579,39 L8.48684211,39 L8.48684211,37.7393824 C8.48684211,36.3852794 13.8154474,31.6347353 14.8355658,29.0509853 L12.0971447,36.0824559 L20.9772105,34.9852941 L32.2613158,34.9852941 C33.6701316,34.9852941 34.5131579,36.3847059 34.5131579,37.7393824 L34.5131579,39 L39.9232368,39 C41.3314868,39 43,37.8655588 43,36.5091618 L43,2.11116176 C43,0.754764706 41.5894868,0 40.1806711,0 Z M5.09210526,34.4117647 L1.69736842,34.4117647 L1.69736842,32.1176471 L5.09210526,32.1176471 L5.09210526,34.4117647 Z M5.09210526,30.3970588 L1.69736842,30.3970588 L1.69736842,28.1029412 L5.09210526,28.1029412 L5.09210526,30.3970588 Z M5.09210526,26.3823529 L1.69736842,26.3823529 L1.69736842,24.0882353 L5.09210526,24.0882353 L5.09210526,26.3823529 Z M5.09210526,22.3676471 L1.69736842,22.3676471 L1.69736842,20.0735294 L5.09210526,20.0735294 L5.09210526,22.3676471 Z M5.09210526,18.3529412 L1.69736842,18.3529412 L1.69736842,16.0588235 L5.09210526,16.0588235 L5.09210526,18.3529412 Z M5.09210526,14.3382353 L1.69736842,14.3382353 L1.69736842,12.0441176 L5.09210526,12.0441176 L5.09210526,14.3382353 Z M5.09210526,10.3235294 L1.69736842,10.3235294 L1.69736842,8.02941176 L5.09210526,8.02941176 L5.09210526,10.3235294 Z M5.09210526,6.30882353 L1.69736842,6.30882353 L1.69736842,3.44117647 L5.09210526,3.44117647 L5.09210526,6.30882353 Z M40.7368421,34.4117647 L37.3421053,34.4117647 L37.3421053,32.1176471 L40.7368421,32.1176471 L40.7368421,34.4117647 Z M40.7368421,30.3970588 L37.3421053,30.3970588 L37.3421053,28.1029412 L40.7368421,28.1029412 L40.7368421,30.3970588 Z M40.7368421,26.3823529 L37.3421053,26.3823529 L37.3421053,24.0882353 L40.7368421,24.0882353 L40.7368421,26.3823529 Z M40.7368421,22.3676471 L37.3421053,22.3676471 L37.3421053,20.0735294 L40.7368421,20.0735294 L40.7368421,22.3676471 Z M40.7368421,18.3529412 L37.3421053,18.3529412 L37.3421053,16.0588235 L40.7368421,16.0588235 L40.7368421,18.3529412 Z M40.7368421,14.3382353 L37.3421053,14.3382353 L37.3421053,12.0441176 L40.7368421,12.0441176 L40.7368421,14.3382353 Z M40.7368421,10.3235294 L37.3421053,10.3235294 L37.3421053,8.02941176 L40.7368421,8.02941176 L40.7368421,10.3235294 Z M18.6412731,22.0226734 L16.5228779,23.0130064 C16.518407,23.0150965 16.5139262,23.0171403 16.5094361,23.0191379 C16.5013729,23.6874496 16.3236548,24.3641515 15.9592027,24.9856127 C14.834506,26.9049755 12.3541309,27.56924 10.419551,26.4697647 C8.48581476,25.3698739 7.82997323,22.9235638 8.95456575,21.004378 C10.0807063,19.0856292 12.5608875,18.4217666 14.494719,19.5208166 C15.3099366,19.9837499 15.8980901,20.6861746 16.2214968,21.4876989 L18.4729306,20.4351714 L17.2639551,9.03430154 C17.2200061,8.61985426 17.5245809,8.24638406 17.9442419,8.20013251 C18.3639029,8.15388096 18.739733,8.45236257 18.783682,8.86680986 L19.9377994,19.7503568 L29.7271747,15.1739015 C30.1096062,14.9951178 30.5641737,15.1556028 30.7424796,15.5323549 C30.9207854,15.909107 30.7553088,16.3594578 30.3728773,16.5382415 L20.1061419,21.3378589 L20.3662851,23.7910588 C21.1469518,23.7327867 21.951537,23.896837 22.6789562,24.3102495 C24.6129018,25.4102593 25.2679532,27.8549445 24.1428434,29.775012 C23.0166267,31.6938904 20.5374891,32.3581733 18.6035571,31.2590662 C16.6692466,30.159744 16.0135602,27.7140128 17.1393046,25.7944015 C17.5601164,25.0762606 18.1707132,24.5338242 18.8714976,24.1937345 L18.6412731,22.0226734 Z M40.7368421,6.30882353 L37.3421053,6.30882353 L37.3421053,3.44117647 L40.7368421,3.44117647 L40.7368421,6.30882353 Z M14.6383369,24.2352332 C15.3397257,23.0392298 14.931222,21.5154977 13.7264676,20.8313601 C12.5215903,20.146595 10.9765668,20.5601467 10.2752985,21.7549864 C9.57497704,22.9501279 9.98359258,24.4742771 11.1882658,25.1594838 C12.3931964,25.8442792 13.9378833,25.4305996 14.6383369,24.2352332 Z M18.4601705,26.5447811 C17.7587593,27.7408226 18.1670706,29.2638368 19.3720398,29.9486542 C20.5766287,30.6332554 22.1206745,30.2195296 22.8221109,29.0244036 C23.5229953,27.828302 23.1150452,26.3058114 21.9102416,25.6205305 C20.705311,24.9357351 19.1606241,25.3494147 18.4601705,26.5447811 Z" id="Trim" fill="#8B8B8B" fill-rule="nonzero"></path>
    </g>
</svg>