<?xml version="1.0" encoding="UTF-8"?>
<svg width="43px" height="43px" viewBox="0 0 43 43" version="1.1" xmlns="http://www.w3.org/2000/svg" xmlns:xlink="http://www.w3.org/1999/xlink">
    <!-- Generator: Sketch 50.2 (55047) - http://www.bohemiancoding.com/sketch -->
    <title>rec</title>
    <desc>Created with Sketch.</desc>
    <defs></defs>
    <g id="Page-1" stroke="none" stroke-width="1" fill="none" fill-rule="evenodd">
        <g id="rec" fill="#F66B50">
            <path d="M21.5,43 C9.62587788,43 0,33.3741221 0,21.5 C0,9.62587788 9.62587788,0 21.5,0 C33.3741221,0 43,9.62587788 43,21.5 C43,33.3741221 33.3741221,43 21.5,43 Z M21.5,41.2723214 C32.4199516,41.2723214 41.2723214,32.4199516 41.2723214,21.5 C41.2723214,10.5800484 32.4199516,1.72767857 21.5,1.72767857 C10.5800484,1.72767857 1.72767857,10.5800484 1.72767857,21.5 C1.72767857,32.4199516 10.5800484,41.2723214 21.5,41.2723214 Z" id="Oval-12" fill-rule="nonzero"></path>
            <path d="M21.5,37 C12.9395864,37 6,30.0604136 6,21.5 C6,12.9395864 12.9395864,6 21.5,6 C30.0604136,6 37,12.9395864 37,21.5 C37,30.0604136 30.0604136,37 21.5,37 Z M12.9619111,22.2867111 C12.9619111,21.8926667 12.6305556,21.5613111 12.2365111,21.5613111 C11.8424667,21.5613111 11.5111111,21.8926667 11.5111111,22.2867111 C11.5111111,22.6718 11.8424667,23.0031556 12.2365111,23.0031556 C12.6305556,23.0031556 12.9619111,22.6718 12.9619111,22.2867111 Z M20.4136222,24.4718667 L19.0702889,22.1971556 C19.7150889,22.0449111 20.3778,21.4807111 20.3778,20.4239556 C20.3778,19.3134667 19.6165778,18.4985111 18.3717556,18.4985111 L15.5776222,18.4985111 L15.5776222,24.4718667 L16.8493111,24.4718667 L16.8493111,22.3494 L17.7806889,22.3494 L18.9538667,24.4718667 L20.4136222,24.4718667 Z M25.5630667,24.4718667 L25.5630667,23.3524222 L22.6077333,23.3524222 L22.6077333,22.0001333 L25.5003778,22.0001333 L25.5003778,20.8806889 L22.6077333,20.8806889 L22.6077333,19.6179556 L25.5630667,19.6179556 L25.5630667,18.4985111 L21.3360444,18.4985111 L21.3360444,24.4718667 L25.5630667,24.4718667 Z M29.4497778,24.5793333 C30.7662444,24.5793333 31.5185111,23.8539333 31.9483778,23.1106222 L30.8558,22.5822444 C30.6050444,23.0748 30.0677111,23.4509333 29.4497778,23.4509333 C28.3661556,23.4509333 27.5780667,22.6180667 27.5780667,21.4896667 C27.5780667,20.3612667 28.3661556,19.5284 29.4497778,19.5284 C30.0677111,19.5284 30.6050444,19.9134889 30.8558,20.3970889 L31.9483778,19.8597556 C31.5274667,19.1164444 30.7662444,18.4 29.4497778,18.4 C27.6586667,18.4 26.2705556,19.6537778 26.2705556,21.4896667 C26.2705556,23.3255556 27.6586667,24.5793333 29.4497778,24.5793333 Z M18.1836889,21.2299556 L16.8493111,21.2299556 L16.8493111,19.6179556 L18.1836889,19.6179556 C18.6941556,19.6179556 19.0792444,19.9224444 19.0792444,20.4239556 C19.0792444,20.9254667 18.6941556,21.2299556 18.1836889,21.2299556 Z" id="Combined-Shape"></path>
        </g>
    </g>
</svg>