<?xml version="1.0" encoding="UTF-8"?>
<svg width="43px" height="43px" viewBox="0 0 43 43" version="1.1" xmlns="http://www.w3.org/2000/svg" xmlns:xlink="http://www.w3.org/1999/xlink">
    <!-- Generator: Sketch 50.2 (55047) - http://www.bohemiancoding.com/sketch -->
    <title>Transfer</title>
    <desc>Created with Sketch.</desc>
    <defs></defs>
    <g id="Page-1" stroke="none" stroke-width="1" fill="none" fill-rule="evenodd">
        <path d="M8.95833333,25.975 C8.46127706,25.975 8.05833333,26.3779437 8.05833333,26.875 C8.05833333,27.3720563 8.46127706,27.775 8.95833333,27.775 L12.2780628,31.0947294 C12.6295346,31.4462013 13.1993831,31.4462013 13.550855,31.0947294 C13.9023268,30.7432576 13.9023268,30.1734091 13.550855,29.8219372 L11.5039177,27.775 L32.25,27.775 C32.7470563,27.775 33.15,27.3720563 33.15,26.875 C33.15,26.3779437 32.7470563,25.975 32.25,25.975 L11.5039177,25.975 L13.550855,23.9280628 C13.9023268,23.5765909 13.9023268,23.0067424 13.550855,22.6552706 C13.1993831,22.3037987 12.6295346,22.3037987 12.2780628,22.6552706 L8.95833333,25.975 Z M31.8688745,15.225 L8.95833333,15.225 C8.46127706,15.225 8.05833333,15.6279437 8.05833333,16.125 C8.05833333,16.6220563 8.46127706,17.025 8.95833333,17.025 L31.8688745,17.025 L29.8219372,19.0719372 C29.4704654,19.4234091 29.4704654,19.9932576 29.8219372,20.3447294 C30.1734091,20.6962013 30.7432576,20.6962013 31.0947294,20.3447294 L35.3144589,16.125 L31.0947294,11.9052706 C30.7432576,11.5537987 30.1734091,11.5537987 29.8219372,11.9052706 C29.4704654,12.2567424 29.4704654,12.8265909 29.8219372,13.1780628 L31.8688745,15.225 Z M21.5,43 C9.62587788,43 0,33.3741221 0,21.5 C0,9.62587788 9.62587788,0 21.5,0 C33.3741221,0 43,9.62587788 43,21.5 C43,33.3741221 33.3741221,43 21.5,43 Z" id="Transfer" fill="#8B8B8B"></path>
    </g>
</svg>