<?xml version="1.0" encoding="UTF-8"?>
<svg width="43px" height="48px" viewBox="0 0 43 48" version="1.1" xmlns="http://www.w3.org/2000/svg" xmlns:xlink="http://www.w3.org/1999/xlink">
    <!-- Generator: Sketch 50.2 (55047) - http://www.bohemiancoding.com/sketch -->
    <title>convert</title>
    <desc>Created with Sketch.</desc>
    <defs></defs>
    <g id="Page-1" stroke="none" stroke-width="1" fill="none" fill-rule="evenodd">
        <path d="M15.7799025,42.9700073 C17.5691468,43.4795319 19.436856,43.741943 21.3426205,43.741943 C32.3231805,43.741943 41.2249293,35.0259653 41.2249293,24.2739651 C41.2249293,19.7681601 39.6579353,15.499605 36.8300743,12.0649007 C36.5225675,11.6914046 36.5827273,11.1447119 36.964445,10.8438284 C37.3461627,10.5429449 37.9048895,10.6018089 38.2123963,10.975305 C41.2921868,14.7160014 43,19.3681538 43,24.2739651 C43,35.9849288 33.3037969,45.4787813 21.3426205,45.4787813 C19.4006123,45.4787813 17.4934765,45.2281976 15.6583341,44.7407002 L15.500554,47.0388308 C15.4636034,47.3020199 15.2197292,47.4418391 15.0249466,47.3115099 L10.142185,43.3371016 C9.92628776,43.1454038 9.90042232,42.7259462 10.0978442,42.6133317 L15.5427833,39.49239 C15.7396774,39.3797754 15.9962203,39.6670058 15.9846072,39.9884002 L15.7799025,42.9700073 Z M24.1922462,4.76875191 C23.3567458,4.66469824 22.5106516,4.61211767 21.6573795,4.61211767 C10.6768195,4.61211767 1.77507069,13.3280954 1.77507069,24.0800956 C1.77507069,27.5989218 2.72905385,30.9790668 4.51228552,33.94407 C4.76088721,34.3574233 4.61995339,34.8897032 4.19750101,35.1329504 C3.77504863,35.3761976 3.23105181,35.2382993 2.98245011,34.8249459 C1.03972343,31.5947483 -1.49213975e-12,27.910809 -1.49213975e-12,24.0800956 C-1.48858703e-12,12.3691319 9.69620315,2.87527943 21.6573795,2.87527943 C22.5500253,2.87527943 23.435848,2.92820222 24.3114159,3.03299744 L24.4975328,0.322129703 C24.5344834,0.0589406207 24.7783576,-0.0808785792 24.9731402,0.0494506298 L29.8559018,4.02385884 C30.071799,4.21555666 30.0976645,4.63501426 29.9002425,4.74762882 L24.4553035,7.8685705 C24.2584094,7.98118506 24.0018665,7.69395467 24.0134796,7.37256031 L24.1922461,4.76875285 Z M21.5043142,38.4807804 C13.4680457,38.4807804 6.95336281,32.0753377 6.95336281,24.1738236 C6.95336281,16.2723095 13.4680457,9.86686677 21.5043142,9.86686677 C29.5405828,9.86686677 36.0552657,16.2723095 36.0552657,24.1738236 C36.0552657,32.0753377 29.5405828,38.4807804 21.5043142,38.4807804 Z M18.8180197,19.4694459 C18.4619275,19.2805905 17.9712801,19.4737138 17.9719901,19.8023434 L17.9947119,28.8819824 C17.9954219,29.2102564 18.4867794,29.4012457 18.8421615,29.2109677 L26.4866045,24.7175618 C26.7596204,24.5237272 26.7585553,24.1172081 26.4844744,23.9244405 L18.8180197,19.4694459 Z" id="convert" fill="#8B8B8B"></path>
    </g>
</svg>