<?xml version="1.0" encoding="UTF-8"?>
<svg width="44px" height="35px" viewBox="0 0 44 35" version="1.1" xmlns="http://www.w3.org/2000/svg" xmlns:xlink="http://www.w3.org/1999/xlink">
    <!-- Generator: Sketch 50.2 (55047) - http://www.bohemiancoding.com/sketch -->
    <title>Group Copy 5</title>
    <desc>Created with Sketch.</desc>
    <defs></defs>
    <g id="Page-1" stroke="none" stroke-width="1" fill="none" fill-rule="evenodd">
        <g id="Group-Copy-5" fill="#8B8B8B">
            <path d="M38.9851675,7.44105727 C39.0189434,7.43732352 39.053267,7.4354067 39.0880383,7.4354067 L42.1741627,7.4354067 C42.6854885,7.4354067 43.1,7.84991819 43.1,8.36124402 L43.1,23.791866 C43.1,24.3031919 42.6854885,24.7177033 42.1741627,24.7177033 L39.0880383,24.7177033 C39.053267,24.7177033 39.0189434,24.7157865 38.9851675,24.7120528 L38.9851675,30.992823 C38.9851675,31.5041488 38.570656,31.9186603 38.0593301,31.9186603 L34.9732057,31.9186603 L34.9732057,34.0789474 L8.22679426,34.0789474 L8.22679426,31.9186603 L5.14066986,31.9186603 C4.62934402,31.9186603 4.21483254,31.5041488 4.21483254,30.992823 L4.21483254,24.7120528 C4.18105657,24.7157865 4.14673299,24.7177033 4.11196172,24.7177033 L1.02583732,24.7177033 C0.514511488,24.7177033 0.1,24.3031919 0.1,23.791866 L0.1,8.36124402 C0.1,7.84991819 0.514511488,7.4354067 1.02583732,7.4354067 L4.11196172,7.4354067 C4.14673299,7.4354067 4.18105657,7.43732352 4.21483254,7.44105727 L4.21483254,4.24641148 C4.21483254,3.73508565 4.62934402,3.32057416 5.14066986,3.32057416 L8.22679426,3.32057416 L8.22679426,0.131578947 L34.9732057,0.131578947 L34.9732057,3.32057416 L38.0593301,3.32057416 C38.570656,3.32057416 38.9851675,3.73508565 38.9851675,4.24641148 L38.9851675,7.44105727 Z M38.9851675,9.28143077 L38.9851675,22.8716793 C39.0189434,22.8679455 39.053267,22.8660287 39.0880383,22.8660287 L41.2483254,22.8660287 L41.2483254,9.28708134 L39.0880383,9.28708134 C39.053267,9.28708134 39.0189434,9.28516452 38.9851675,9.28143077 Z M34.9732057,30.0669856 L37.1334928,30.0669856 L37.1334928,5.1722488 L34.9732057,5.1722488 L34.9732057,23.7265587 L29.2730179,20.1381727 C29.02651,19.9829908 28.721344,19.9528676 28.4492529,20.0568579 L22.8486276,22.1973573 L17.2601678,18.8808456 C16.9673322,18.7070602 16.6027347,18.7080496 16.3108466,18.8834217 L8.22679426,23.7404809 L8.22679426,5.1722488 L6.06650718,5.1722488 L6.06650718,30.0669856 L8.22679426,30.0669856 L8.22679426,25.7465505 C8.38938141,25.7467047 8.55408979,25.7040218 8.70361196,25.6141859 L16.7905906,20.7553686 L22.2885442,24.0181688 C22.5316971,24.1624696 22.8274603,24.1877501 23.0915754,24.0868081 L28.6781072,21.951695 L34.4799685,25.6040866 C34.6334257,25.7006911 34.8043514,25.7466921 34.9732057,25.7465321 L34.9732057,30.0669856 Z M4.21483254,22.8716793 L4.21483254,9.28143077 C4.18105657,9.28516452 4.14673299,9.28708134 4.11196172,9.28708134 L1.95167464,9.28708134 L1.95167464,22.8660287 L4.11196172,22.8660287 C4.14673299,22.8660287 4.18105657,22.8679455 4.21483254,22.8716793 Z M27.2578947,14.430622 C29.1895701,14.430622 30.7555024,12.8646897 30.7555024,10.9330144 C30.7555024,9.00133899 29.1895701,7.4354067 27.2578947,7.4354067 C25.3262194,7.4354067 23.7602871,9.00133899 23.7602871,10.9330144 C23.7602871,12.8646897 25.3262194,14.430622 27.2578947,14.430622 Z M27.2578947,12.5789474 C26.348871,12.5789474 25.6119617,11.8420381 25.6119617,10.9330144 C25.6119617,10.0239907 26.348871,9.28708134 27.2578947,9.28708134 C28.1669184,9.28708134 28.9038278,10.0239907 28.9038278,10.9330144 C28.9038278,11.8420381 28.1669184,12.5789474 27.2578947,12.5789474 Z" id="Combined-Shape"></path>
        </g>
    </g>
</svg>