<?xml version="1.0" encoding="UTF-8"?>
<svg width="43px" height="34px" viewBox="0 0 43 34" version="1.1" xmlns="http://www.w3.org/2000/svg" xmlns:xlink="http://www.w3.org/1999/xlink">
    <!-- Generator: Sketch 50.2 (55047) - http://www.bohemiancoding.com/sketch -->
    <title>video</title>
    <desc>Created with Sketch.</desc>
    <defs></defs>
    <g id="Page-1" stroke="none" stroke-width="1" fill="none" fill-rule="evenodd">
        <g id="video" fill="#8B8B8B" fill-rule="nonzero">
            <path d="M35.5936,14.6033172 C34.7838964,14.3794512 33.9317005,14.259945 33.0519592,14.259945 C27.7319682,14.259945 23.4192802,18.6301551 23.4192802,24.0211036 C23.4192802,26.8016605 24.5665914,29.3106687 26.4076674,31.0885324 L1.47437571,31.0885324 C0.662166324,31.0885324 0,30.4149514 0,29.5879711 L0,1.84446131 C0,1.0178084 0.662259739,0.3439 1.47437571,0.3439 L34.1192243,0.3439 C34.9313403,0.3439 35.5936,1.0178084 35.5936,1.84446131 L35.5936,14.6033172 Z M1.28844989,5.47771632 C1.34827088,5.46577483 1.4105112,5.45945946 1.47437571,5.45945946 L34.1192243,5.45945946 C34.1830888,5.45945946 34.2453291,5.46577483 34.3051501,5.47771632 L34.3051501,1.84446131 C34.3051501,1.74276005 34.219988,1.6561 34.1192243,1.6561 L1.47437571,1.6561 C1.373612,1.6561 1.28844989,1.74276005 1.28844989,1.84446131 L1.28844989,5.47771632 Z M13.1102909,22.3676255 L23.0048579,17.3543557 C23.413292,17.1474148 23.413292,16.8092431 23.0048579,16.6018816 L13.1102909,11.5886118 C12.7018567,11.3816709 12.3677211,11.5911355 12.3677211,12.0538082 L12.3677211,21.9028496 C12.3677211,22.3655224 12.7018567,22.574987 13.1102909,22.3676255 Z M4.58333333,3.67543099 C4.58333333,4.16774552 4.18261754,4.56756757 3.6875,4.56756757 C3.19287413,4.56756757 2.79166667,4.16774552 2.79166667,3.67543099 C2.79166667,3.18262707 3.19287413,2.78378378 3.6875,2.78378378 C4.18261754,2.78378378 4.58333333,3.18262707 4.58333333,3.67543099 Z M7.27083333,3.67543099 C7.27083333,4.16774552 6.8692444,4.56756757 6.37475423,4.56756757 C5.88026406,4.56756757 5.47916667,4.16774552 5.47916667,3.67543099 C5.47916667,3.18262707 5.88026406,2.78378378 6.37475423,2.78378378 C6.8692444,2.78378378 7.27083333,3.18262707 7.27083333,3.67543099 Z M9.95833333,3.67543099 C9.95833333,4.16774552 9.55750755,4.56756757 9.06274591,4.56756757 C8.56749245,4.56756757 8.16666667,4.16774552 8.16666667,3.67543099 C8.16666667,3.18262707 8.56749245,2.78378378 9.06274591,2.78378378 C9.55750755,2.78378378 9.95833333,3.18262707 9.95833333,3.67543099 Z" id="Combined-Shape"></path>
            <path d="M32.1805556,27.1393699 L32.1805556,18.9 C32.1805556,18.4029437 32.5834993,18 33.0805556,18 C33.5776118,18 33.9805556,18.4029437 33.9805556,18.9 L33.9805556,27.7339645 L37.2233419,24.5054456 C37.5755878,24.1547495 38.1454349,24.1560059 38.496131,24.5082518 C38.8468271,24.8604977 38.8455707,25.4303448 38.4933248,25.7810409 L34.0141582,30.2405003 C33.66301,30.5901035 33.0953233,30.5901035 32.7441752,30.2405003 L28.2650085,25.7810409 C27.9127626,25.4303448 27.9115063,24.8604977 28.2622024,24.5082518 C28.6128985,24.1560059 29.1827456,24.1547495 29.5349915,24.5054456 L32.1805556,27.1393699 Z M32.8541667,14 C38.2964821,14 42.7083333,18.3924402 42.7083333,23.8108108 C42.7083333,29.2291815 38.2964821,33.6216216 32.8541667,33.6216216 C27.4118512,33.6216216 23,29.2291815 23,23.8108108 C23,18.3924402 27.4118512,14 32.8541667,14 Z M32.8541667,15.8 C28.4041913,15.8 24.8,19.3883338 24.8,23.8108108 C24.8,28.2332878 28.4041913,31.8216216 32.8541667,31.8216216 C37.304142,31.8216216 40.9083333,28.2332878 40.9083333,23.8108108 C40.9083333,19.3883338 37.304142,15.8 32.8541667,15.8 Z" id="Combined-Shape"></path>
        </g>
    </g>
</svg>