<?xml version="1.0" encoding="UTF-8"?>
<svg width="43px" height="32px" viewBox="0 0 43 32" version="1.1" xmlns="http://www.w3.org/2000/svg" xmlns:xlink="http://www.w3.org/1999/xlink">
    <!-- Generator: Sketch 50.2 (55047) - http://www.bohemiancoding.com/sketch -->
    <title>Compress</title>
    <desc>Created with Sketch.</desc>
    <defs></defs>
    <g id="Page-1" stroke="none" stroke-width="1" fill="none" fill-rule="evenodd">
        <path d="M6.16666667,0 L6.16666667,1.79999995 L8.16666667,1.79999995 L8.16666667,0 L41.2,0 C42.1941125,-1.82615513e-16 43,0.80588745 43,1.8 L43,30.2 C43,31.1941125 42.1941125,32 41.2,32 L1.8,32 C0.80588745,32 7.8787749e-16,31.1941125 6.66133815e-16,30.2 L0,1.8 C-1.21743675e-16,0.80588745 0.80588745,8.48749328e-16 1.8,6.66133815e-16 L6.16666667,0 Z M6.16666667,3.5999999 L6.16666667,5.39999986 L8.16666667,5.39999986 L8.16666667,3.5999999 L6.16666667,3.5999999 Z M6.16666667,7.19999981 L6.16666667,8.99999976 L8.16666667,8.99999976 L8.16666667,7.19999981 L6.16666667,7.19999981 Z M6.16666667,10.7999997 L6.16666667,12.5999997 L8.16666667,12.5999997 L8.16666667,10.7999997 L6.16666667,10.7999997 Z M6.16666667,14.3999996 L6.16666667,16 L8.16666667,16 L8.16666667,14.3999996 L6.16666667,14.3999996 Z M6.27083333,17 L5.375,23.2222222 L8.95833333,23.2222222 L8.0625,17 L6.27083333,17 Z M18.6729244,20.6000691 L28.7498788,15.603679 C29.1658416,15.3974349 29.1658416,15.0604018 28.7498788,14.8537384 L18.6729244,9.85734836 C18.2569615,9.65110422 17.9166667,9.85986354 17.9166667,10.3209785 L17.9166667,20.1368581 C17.9166667,20.5979731 18.2569615,20.8067324 18.6729244,20.6000691 Z" id="Compress" fill="#8B8B8B"></path>
    </g>
</svg>