<?xml version="1.0" encoding="UTF-8"?>
<svg width="43px" height="42px" viewBox="0 0 43 42" version="1.1" xmlns="http://www.w3.org/2000/svg" xmlns:xlink="http://www.w3.org/1999/xlink">
    <!-- Generator: Sketch 50.2 (55047) - http://www.bohemiancoding.com/sketch -->
    <title>burn dvd</title>
    <desc>Created with Sketch.</desc>
    <defs></defs>
    <g id="Page-1" stroke="none" stroke-width="1" fill="none" fill-rule="evenodd">
        <path d="M25.489286,37.3997083 C20.0774493,39.2165924 13.9124976,38.6373975 8.75772369,35.2912742 C-0.170602761,29.4961026 -2.68634067,17.596565 3.13825492,8.71334159 C8.96285051,-0.169325704 20.9222471,-2.67291102 29.8505736,3.12226058 C37.3742107,8.00566616 40.3445831,17.2229827 37.6082652,25.3181944 C37.8955992,26.3610609 37.948785,27.4449013 37.8715845,28.6950502 C37.8615985,28.8527551 37.8562069,28.9371439 37.8531974,28.9871704 C37.8180416,29.5695224 38.2318706,30.0391172 38.9072409,29.9621948 C39.4009322,29.9061012 39.5933628,29.0873087 39.2550649,28.0023309 C39.1294246,27.5993814 39.3070324,27.1639147 39.678647,26.9637737 C40.03503,26.771836 40.4542788,26.8310804 40.7300113,27.1010238 C42.6575235,28.988067 43.3188007,31.0177372 42.8605558,33.6936516 C42.0494616,38.4329796 37.1247744,41.6498519 31.8842553,40.9441297 C29.2005636,40.5829771 26.9493349,39.2560442 25.489286,37.3997083 Z M32.1598636,15.7009306 C32.1958431,15.6165892 32.220136,15.5709437 32.220136,15.5709437 C32.220136,15.5709437 32.1826031,15.614857 32.1179973,15.69783 C32.1319959,15.6985154 32.145955,15.6995517 32.1598636,15.7009306 Z M25.9927396,5.06680158 C30.2024546,6.93416033 33.3148234,10.46687 34.6705284,14.7578372 C34.7831546,15.1143125 35.1649037,15.3124524 35.5231889,15.2003952 C35.881474,15.0883379 36.08062,14.7085173 35.9679938,14.3520421 C34.496613,9.6949473 31.1160635,5.8578378 26.5465547,3.83088056 C26.2035317,3.67872132 25.8014808,3.83204223 25.648549,4.1733324 C25.4956172,4.51462256 25.6497166,4.91464234 25.9927396,5.06680158 Z M12.6807166,33.9573486 C8.47065916,32.0893187 5.35789963,28.5563471 4.00230466,24.2657283 C3.88967848,23.9092531 3.5079294,23.7111131 3.14964423,23.8231704 C2.79135906,23.9352276 2.5922131,24.3150482 2.70483929,24.6715234 C4.17610638,29.3282583 7.55701943,33.1655832 12.1267731,35.1932126 C12.4697803,35.3454071 12.8718471,35.1921276 13.0248143,34.8508531 C13.1777816,34.5095787 13.0237238,34.1095431 12.6807166,33.9573486 Z M25.2768864,21.9955302 C26.6851387,18.8526387 25.2657032,15.1687882 22.1067349,13.7675971 C18.9481074,12.3659333 15.2459677,13.7779949 13.8375848,16.921178 C12.4286675,20.0641543 13.8477822,23.7485647 17.0072233,25.1496874 C20.1660264,26.5508053 23.868581,25.1385404 25.2768864,21.9955302 Z M21.5528414,15.0034833 C24.02589,16.1004281 25.1370683,18.9842613 24.0346794,21.4445371 C22.9322109,23.9049903 20.0337355,25.0105553 17.5609681,23.9137353 C15.0876872,22.8169052 13.9767916,19.9327158 15.0797461,17.4722733 C16.1823199,15.0115851 19.0802623,13.9062585 21.5528414,15.0034833 Z M25.5179622,31.3351047 C24.968889,35.1310752 27.8388032,38.6207195 32.1194826,39.1967837 C36.4590526,39.7811783 40.4794328,37.1550115 41.1227296,33.3961452 C41.3201306,32.2434252 41.2678546,31.2876799 40.9312365,30.4152532 C40.620819,31.1147528 40.0261694,31.6095134 39.1065246,31.7140041 C37.2614324,31.9241541 35.9962475,30.4884784 36.0932822,28.8811122 C36.0965209,28.8272747 36.1021849,28.7386238 36.1118287,28.58638 C36.2224129,26.7956289 36.0261115,25.4852155 35.1325339,24.0840172 C34.6413243,23.3137628 33.9584815,22.6034995 33.051711,21.9610755 C32.5828182,21.6287575 32.1894705,21.2712181 31.8692707,20.8903748 C31.5704471,20.5349562 31.3409927,20.1708204 31.1735392,19.8029619 C30.798784,20.9112032 30.8061688,21.9983413 31.3129703,23.0122259 C31.3817575,23.1498385 31.4598517,23.2863119 31.5475751,23.421629 C33.2072348,25.9814996 32.2195499,29.181598 29.7547036,29.3386136 C28.290866,29.4313643 27.5514814,28.8630929 27.2277106,27.6154316 C26.2545581,28.7150783 25.732664,29.8496989 25.5179622,31.3351047 Z" id="burn-dvd" fill="#8B8B8B"></path>
    </g>
</svg>