<?xml version="1.0" encoding="UTF-8"?>
<svg width="44px" height="39px" viewBox="0 0 44 39" version="1.1" xmlns="http://www.w3.org/2000/svg" xmlns:xlink="http://www.w3.org/1999/xlink">
    <!-- Generator: Sketch 50.2 (55047) - http://www.bohemiancoding.com/sketch -->
    <title>Crop</title>
    <desc>Created with Sketch.</desc>
    <defs></defs>
    <g id="Page-1" stroke="none" stroke-width="1" fill="none" fill-rule="evenodd">
        <g id="Crop" transform="translate(0.000000, -8.000000)" fill="#8B8B8B" fill-rule="nonzero">
            <path d="M40.2884461,40.1434358 L21.8214974,40.1434358 L21.8214974,19.5796798 L25.5846756,19.5796798 L23.8870271,17.8658356 L21.8214974,17.8658356 L21.8214974,15.7839334 L18.7917861,12.7254902 L-2.48689958e-14,12.7254902 L-2.48689958e-14,47 L41.9642857,47 L41.9642857,36.1167627 L40.2884461,34.4225087 L40.2884461,40.1434358 Z M1.68100484,17.8664292 L1.68100484,14.4381471 L5.03497967,14.4381471 L5.03497967,17.8664292 L1.68100484,17.8664292 Z M6.71598451,17.8664292 L6.71598451,14.4381471 L10.0739768,14.4381471 L10.0739768,17.8664292 L6.71598451,17.8664292 Z M11.7503903,17.8664292 L11.7503903,14.4381471 L15.1083825,14.4381471 L15.1083825,17.8664292 L11.7503903,17.8664292 Z M16.7859439,17.8664292 L16.7859439,14.4381471 L20.1450839,14.4381471 L20.1450839,17.8664292 L16.7859439,17.8664292 Z M1.68100484,40.1434358 L1.68100484,19.5796798 L20.1450839,19.5796798 L20.1450839,40.1434358 L1.68100484,40.1434358 Z M40.2884461,41.8596546 L40.2884461,45.2879367 L36.9287321,45.2879367 L36.9287321,41.8596546 L40.2884461,41.8596546 Z M35.2523186,41.8596546 L35.2523186,45.2879367 L31.8949003,45.2879367 L31.8949003,41.8596546 L35.2523186,41.8596546 Z M30.2150433,41.8596546 L30.2150433,45.2879367 L26.8559032,45.2879367 L26.8559032,41.8596546 L30.2150433,41.8596546 Z M25.1800636,41.8596546 L25.1800636,45.2879367 L21.8209235,45.2879367 L21.8209235,41.8596546 L25.1800636,41.8596546 Z M20.1450839,41.8596546 L20.1450839,45.2879367 L16.7859439,45.2879367 L16.7859439,41.8596546 L20.1450839,41.8596546 Z M15.1078086,41.8596546 L15.1078086,45.2879367 L11.7498163,45.2879367 L11.7498163,41.8596546 L15.1078086,41.8596546 Z M10.0739768,41.8596546 L10.0739768,45.2879367 L6.71598451,45.2879367 L6.71598451,41.8596546 L10.0739768,41.8596546 Z M5.03440575,41.8596546 L5.03440575,45.2879367 L1.68043092,45.2879367 L1.68043092,41.8596546 L5.03440575,41.8596546 Z M3.32240936,21.0934667 L18.9909355,21.0934667 L18.9909355,38.8671057 L3.32240936,38.8671057 L3.32240936,21.0934667 Z M23.2138217,26.9568772 L33.5741834,29.7986318 L38.8829218,38.8671057 L23.2138217,38.8671057 L23.2138217,26.9568772 Z" id="Combined-Shape"></path>
            <g id="剪刀" transform="translate(33.119398, 17.921482) rotate(-45.000000) translate(-33.119398, -17.921482) translate(20.619398, 5.421482)">
                <path d="M15.3366389,18.3868021 C14.3625977,17.4357598 12.7759333,17.4359666 11.8030103,18.3865823 C10.8414492,19.3254394 10.8410356,20.8383451 11.8018592,21.7771388 C12.7753055,22.7269353 14.3624787,22.7267285 15.3364137,21.7764548 C16.2980031,20.8375701 16.2982099,19.3250123 15.3366389,18.3868021 Z M16.593685,23.0645809 C14.9204073,24.6972072 12.2175263,24.6975594 10.5443628,23.0650451 C8.86011723,21.4194165 8.86084873,18.7435634 10.5452885,17.0988962 C12.2172137,15.4653047 14.9205199,15.4649158 16.5937977,17.0985662 C18.279199,18.7431409 18.2787957,21.4192586 16.593685,23.0645809 Z M16.375056,14.2641937 L14.5863306,13.9831553 L15.0683463,16.4943157 C15.1620455,16.9824606 14.842284,17.4541383 14.3541391,17.5478374 C13.8659942,17.6415365 13.3943165,17.3217751 13.3006174,16.8336302 L12.6964754,13.6862277 L0.860308761,11.8265699 C0.369276257,11.7494205 0.0337576617,11.2888181 0.110907003,10.7977856 C0.188056344,10.3067531 0.648658736,9.97123453 1.13969124,10.0483839 L12.3358521,11.8074862 L10.2939272,1.16965726 C10.2002281,0.681512384 10.5199895,0.209834637 11.0081344,0.116135522 C11.4962793,0.0224364067 11.967957,0.342197872 12.0616561,0.830342744 L14.2257073,12.1044138 L16.3400645,12.4366143 C16.5019709,11.649342 16.8949639,10.8986952 17.5189877,10.2894056 C19.192446,8.65660315 21.8934756,8.65660315 23.5673842,10.2898453 C25.2517269,11.9355687 25.2517269,14.610518 23.567159,16.2553103 C21.8943258,17.8886451 19.1921152,17.889034 17.5188751,16.2554203 C16.9359638,15.6866292 16.5547059,14.9944466 16.375056,14.2641937 Z M18.7760339,14.9671843 C19.7501126,15.9182633 21.3360207,15.9180566 22.3096624,14.9674041 C23.2709674,14.0287972 23.2709674,12.5167955 22.3098877,11.5777514 C21.3356215,10.6271545 19.7503001,10.6271545 18.7762591,11.5775316 C17.8146696,12.5164163 17.8144629,14.0289742 18.7760339,14.9671843 Z" id="Combined-Shape"></path>
            </g>
        </g>
    </g>
</svg>