<?xml version="1.0" encoding="UTF-8"?>
<svg width="43px" height="30px" viewBox="0 0 43 30" version="1.1" xmlns="http://www.w3.org/2000/svg" xmlns:xlink="http://www.w3.org/1999/xlink">
    <!-- Generator: Sketch 50.2 (55047) - http://www.bohemiancoding.com/sketch -->
    <title>Subtitle</title>
    <desc>Created with Sketch.</desc>
    <defs></defs>
    <g id="Page-1" stroke="none" stroke-width="1" fill="none" fill-rule="evenodd">
        <path d="M0,5.00443555 C0,2.24056212 2.23629957,0 4.99571021,0 L38.0042898,0 C40.7633444,0 43,2.2303666 43,5.00443555 L43,24.9955644 C43,27.7594379 40.7637004,30 38.0042898,30 L4.99571021,30 C2.23665565,30 0,27.7696334 0,24.9955644 L0,5.00443555 Z M4,24 L39,24 C39.7308732,24 40,23.7761424 40,24 C40,23.2238576 39.7308732,23 39,23 L4,23 C3.26912682,23 3,23.2238576 3,24 C3,23.7761424 3.26912682,24 4,24 Z M8,27 L33,27 C33.7383179,27 34,26.7761424 34,27 C34,26.2238576 33.7383179,26 33,26 L8,26 C7.26168207,26 7,26.2238576 7,27 C7,26.7761424 7.26168207,27 8,27 Z M17,7.99201702 L17,15.007983 C17,16.0998238 17.7864816,16.5630658 18.7566558,16.0240801 L25.1206553,12.4885248 C25.6132812,12.2148438 25.6281428,11.7520952 25.1694336,11.4462891 L18.6717387,7.11449245 C17.751855,6.50123665 17,6.8918564 17,7.99201702 Z" id="Subtitle" fill="#8B8B8B"></path>
    </g>
</svg>